# xmcd
#
# Track frame offsets: 
#        215
#        16023
#        37261
#        57840
#        73611
#        90628
#        108070
#        120615
#        135617
#        155274
#        184681
#
# Disc length: 4440 seconds
#
# Revision: 0
# Processed by: cddbd v1.5.2PL0 Copyright (c) Steve Scherf et al.
# Submitted via: ExactAudioCopy v0.95b4
#
DISCID=8711560b
DTITLE=Jorge Palma - Deixa-me Rir
DYEAR=2005
DGENRE=Country
TTITLE0=Deixa-me Rir
TTITLE1=O Lado Errado da Noite
TTITLE2=Onde Estás Tu Mamã (Canção de Lisboa)
TTITLE3=Olá, Tenho Que Ir Andando
TTITLE4=Jeremias o Fora da Lei
TTITLE5=Imaginação
TTITLE6=Até Mais Não Poder Ser
TTITLE7=Tudo Bem (Os Morangos Estão Lá)
TTITLE8=A Caminho de Casa
TTITLE9=Quarto Minguante
TTITLE10=dat1
EXTD=
EXTT0=
EXTT1=
EXTT2=
EXTT3=
EXTT4=
EXTT5=
EXTT6=
EXTT7=
EXTT8=
EXTT9=
EXTT10=
PLAYORDER=
